<svg width="50" height="50" viewBox="0 0 50 50" fill="none" xmlns="http://www.w3.org/2000/svg">
<path fill-rule="evenodd" clip-rule="evenodd" d="M23.5417 0.0521172C13.7887 0.562598 5.11 6.93607 1.59422 16.1701C0.48947 19.0715 0 21.7892 0 25.0207C0 27.3146 0.159378 28.7329 0.65215 30.8242C3.00793 40.8215 11.5561 48.5251 21.74 49.8288C23.4836 50.0519 26.5424 50.0579 28.1775 49.8412C31.1333 49.4497 33.7513 48.6355 36.384 47.2891C43.7993 43.497 48.868 36.2359 49.8547 27.9918C50.049 26.3672 50.0484 23.6651 49.8531 22.0496C48.8421 13.6836 43.7184 6.42493 36.1428 2.62642C33.1877 1.14483 29.8249 0.227083 26.8437 0.0887609C26.1778 0.0578393 25.4844 0.0200953 25.3028 0.00490965C25.1212 -0.010276 24.3287 0.0109618 23.5417 0.0521172ZM27.3158 3.23891C37.2486 4.32061 45.1368 11.8716 46.679 21.7745C46.9349 23.4179 46.9349 26.6234 46.679 28.2669C45.9477 32.9626 43.7834 37.2224 40.4452 40.5365C32.4726 48.4515 19.9332 49.0763 11.1553 41.996C10.1081 41.1513 8.32221 39.3 7.50518 38.2121C2.5255 31.5816 1.70814 22.7572 5.38131 15.282C7.89702 10.1624 12.5939 6.06994 18.0505 4.24325C19.2639 3.83709 21.2753 3.3824 22.441 3.25068C23.6985 3.10873 26.0675 3.1029 27.3158 3.23891ZM12.4799 24.9702C12.4799 31.4134 12.5092 36.685 12.5448 36.685C12.5806 36.685 15.7382 34.4303 19.5616 31.6745L26.5135 26.6641L26.5421 31.6833C26.5579 34.4439 26.6118 36.6862 26.662 36.6663C26.8043 36.6096 40.6444 25.0825 40.6444 25.0207C40.6444 24.9588 26.8043 13.4317 26.662 13.375C26.6118 13.3551 26.5579 15.5971 26.5421 18.3573L26.5135 23.376L23.0464 20.8767C21.1395 19.5022 17.982 17.225 16.0296 15.8164L12.4799 13.2554V24.9702Z" fill="white"/>
</svg>
