<svg width="50" height="50" viewBox="0 0 50 50" fill="none" xmlns="http://www.w3.org/2000/svg">
<path fill-rule="evenodd" clip-rule="evenodd" d="M23.266 0.0316586C17.9839 0.417691 13.1005 2.38511 8.97741 5.78805C8.22185 6.41163 6.42838 8.20551 5.80494 8.96124C3.07986 12.2645 1.31022 15.9649 0.483578 20.0884C-0.837143 26.6765 0.576658 33.6028 4.3669 39.1133C5.78096 41.1691 7.57356 43.0819 9.56426 44.6591C14.3124 48.4211 20.5339 50.3531 26.5916 49.9467C33.8278 49.4612 40.3653 45.981 44.8059 40.2501C47.1352 37.244 48.7673 33.6552 49.5181 29.8885C50.8349 23.2826 49.4246 16.3732 45.6351 10.8637C44.1663 8.72838 42.1939 6.6527 40.1571 5.09893C36.4811 2.29487 32.2317 0.61109 27.5525 0.104547C26.665 0.00843437 24.165 -0.0340327 23.266 0.0316586ZM26.5064 2.5314C30.8933 2.85143 34.8685 4.30991 38.371 6.88453C40.0955 8.15212 41.919 9.98668 43.1751 11.7175C48.0988 18.5025 48.8847 27.4113 45.2171 34.8659C44.0648 37.208 42.7489 39.0455 40.9015 40.892C39.0586 42.734 37.2209 44.0546 34.9301 45.1829C33.1267 46.0712 31.3627 46.6688 29.3896 47.0599C23.5611 48.2152 17.6373 47.0588 12.6335 43.7888C10.195 42.1953 7.91806 39.9357 6.28988 37.4938C2.96933 32.5137 1.77021 26.4759 2.93463 20.5989C4.90216 10.6681 13.259 3.28958 23.3935 2.53507C24.2189 2.47362 25.6904 2.47188 26.5064 2.5314ZM16.6556 12.4959C16.6422 12.531 16.6372 18.1756 16.6444 25.0395L16.6575 37.5194L19.9872 37.5325L23.317 37.5456V24.9888V12.4321H19.9984C17.3905 12.4321 16.6746 12.4458 16.6556 12.4959ZM26.8381 24.9885V37.5456L30.1678 37.5325L33.4976 37.5194V24.9885V12.4576L30.1678 12.4445L26.8381 12.4314V24.9885Z" fill="white"/>
</svg>
