<svg width="50" height="50" viewBox="0 0 50 50" fill="none" xmlns="http://www.w3.org/2000/svg">
<path fill-rule="evenodd" clip-rule="evenodd" d="M23.0237 0.0374561C19.7308 0.344787 16.9584 1.09847 14.1325 2.45458C9.1216 4.85916 4.86893 9.11019 2.47623 14.1064C0.710246 17.7938 -0.0907192 21.5228 0.0081342 25.5968C0.0444244 27.0951 0.13614 28.0303 0.384653 29.4369C1.55176 36.0433 5.47806 42.0287 11.1169 45.7974C12.4716 46.7028 14.4239 47.7254 15.8856 48.2953C20.9383 50.265 26.6191 50.538 31.8245 49.0611C38.9943 47.0269 44.9613 41.8026 47.9372 34.954C50.5574 28.9238 50.6868 22.0188 48.2947 15.8764C47.9366 14.957 46.9447 12.9427 46.4561 12.1426C44.4854 8.91602 42.0333 6.32357 39.0346 4.29628C35.618 1.9865 32.0152 0.645637 27.8224 0.123499C26.9363 0.0131552 23.8727 -0.0418067 23.0237 0.0374561ZM27.3126 2.25579C34.8855 3.04854 41.4741 7.45749 45.1113 14.1664C47.4874 18.5492 48.3512 23.7722 47.5226 28.7469C46.738 33.458 44.5189 37.7676 41.142 41.1388C36.0451 46.2269 28.9607 48.6007 21.824 47.6115C11.9951 46.2493 4.13023 38.6112 2.48253 28.8277C2.24733 27.431 2.18159 26.5669 2.18435 24.9068C2.18783 22.782 2.39555 21.1215 2.89756 19.2066C3.91404 15.3291 5.83635 11.9371 8.65745 9.04311C12.6523 4.94503 17.8783 2.55094 23.6535 2.17335C24.2519 2.13423 26.6723 2.18877 27.3126 2.25579ZM16.8554 12.1051C16.4464 12.3076 16.2795 12.6132 16.2568 13.2019C16.2465 13.4683 16.2628 18.9818 16.2931 25.4539C16.3462 36.8231 16.352 37.2293 16.4618 37.4505C16.5243 37.5764 16.6791 37.7622 16.806 37.8634C17.0069 38.0236 17.0839 38.0472 17.4058 38.0472C17.7485 38.0472 17.8205 38.021 18.4049 37.6829C18.7514 37.4825 20.8838 36.2376 23.1437 34.9165C29.3267 31.3018 35.338 27.7912 37.1199 26.7542C37.9942 26.2455 38.7824 25.7457 38.8716 25.6437C39.1403 25.3362 39.1946 24.7959 38.9939 24.4253C38.8679 24.1925 38.5743 23.9864 37.4798 23.3625C36.8695 23.0146 35.1824 22.0486 33.7308 21.2159C29.5483 18.8166 24.3308 15.823 21.0442 13.9369C19.3782 12.9807 17.9071 12.149 17.7751 12.0887C17.4572 11.9433 17.1719 11.9483 16.8554 12.1051ZM23.5203 17.8664C26.2328 19.4243 29.8829 21.5201 31.6314 22.5237C33.3799 23.5272 35.0484 24.4851 35.3391 24.6522L35.8676 24.956L35.699 25.0596C35.6062 25.1166 33.3574 26.432 30.7016 27.9826C28.0459 29.5333 24.2264 31.7635 22.2139 32.9385L18.5549 35.0749L18.5135 32.721C18.4907 31.4262 18.4637 26.9037 18.4535 22.671C18.4385 16.4435 18.4496 14.9807 18.5116 15.0045C18.5538 15.0207 20.8077 16.3086 23.5203 17.8664Z" fill="white"/>
</svg>
