<svg width="51" height="51" viewBox="0 0 51 51" fill="none" xmlns="http://www.w3.org/2000/svg">
<path fill-rule="evenodd" clip-rule="evenodd" d="M24.5616 0.143631C12.0497 0.70933 1.65481 11.02 0.976679 23.5376C0.576148 30.9289 3.06044 37.5326 8.18596 42.7013C12.5963 47.1488 18.2863 49.7407 24.3636 50.0707C31.7411 50.4712 38.3541 47.9827 43.5227 42.8609C48.6914 37.7392 51.2397 31.1493 50.9059 23.7691C50.4818 14.3957 44.5427 5.88494 35.7921 2.11095C32.2798 0.596232 28.6428 -0.0409738 24.5616 0.143631ZM28.7509 3.39597C36.1186 4.38447 42.364 8.8717 45.6032 15.5039C49.2744 23.0209 48.3756 31.8139 43.2493 38.5327C42.3607 39.6975 40.3697 41.6704 39.1968 42.5484C29.0161 50.1703 14.7289 47.7657 7.69983 37.2474C1.00469 27.2288 3.74168 13.6056 13.8007 6.88079C16.6208 4.99542 20.2186 3.69176 23.6117 3.32588C24.9791 3.17843 27.3723 3.21103 28.7509 3.39597ZM17.3219 19.2067C13.4941 22.3746 10.3621 25.0024 10.3619 25.0465C10.3615 25.1342 24.1688 36.7716 24.2739 36.772C24.3097 36.7722 24.362 34.523 24.3901 31.7736L24.4413 26.775L30.5816 31.8016C33.9589 34.5663 36.7592 36.8284 36.8046 36.8286C36.8501 36.8288 36.911 31.5798 36.94 25.1642C36.9689 18.7485 36.9531 13.4992 36.9047 13.499C36.8359 13.4987 29.3825 19.446 25.1744 22.8589L24.4564 23.4412L24.4503 18.442C24.447 15.6924 24.4077 13.4437 24.3629 13.445C24.3181 13.4462 21.1496 16.039 17.3219 19.2067Z" fill="white"/>
</svg>
